<svg xmlns="http://www.w3.org/2000/svg" width="19.85" height="19.046" viewBox="0 0 20.844 20"><path data-name="hashtag copie" class="cls-1" d="M20.167 6.275l-4.969.023L16.632.824a.667.667 0 0 0-1.291-.338l-1.525 5.818-4.854.022 1.442-5.5A.667.667 0 0 0 9.113.488L7.581 6.335l-5.837.027a.667.667 0 0 0 0 1.334l5.481-.025-1.226 4.681-5.326.024a.667.667 0 0 0 0 1.334l4.97-.023-1.424 5.468a.667.667 0 0 0 1.291.338l1.525-5.818 4.854-.022-1.442 5.5a.667.667 0 0 0 .476.814.68.68 0 0 0 .17.022.668.668 0 0 0 .645-.5l1.532-5.847 5.838-.027a.667.667 0 0 0 0-1.334l-5.481.025 1.227-4.681 5.325-.024a.667.667 0 0 0-.012-1.326zm-7.93 6.046l-4.854.022 1.226-4.681 4.854-.022z"/></svg>