<svg xmlns="http://www.w3.org/2000/svg" width="48.781" height="40" viewBox="0 0 48.781 40"><defs><style>.icotwitter{fill:#55acee;fill-rule:evenodd}</style></defs><path id="icon_twitter" class="icotwitter" d="M127.706 4.614c-2.175.329-5.668.921-5.668.921L126.453.8l-.065-.132c-2.505 1.447-6.2 1.71-7.909 1.974a8.669 8.669 0 0 0-6.393-2.633c-7.316 0-11.6 6.447-9.557 12.368-12.852-.461-20.365-10.2-20.365-10.2-3.954 7.5 3.691 13.026 3.691 13.026a22.031 22.031 0 0 1-5.207-1.184c0 7.829 8.634 9.934 8.634 9.934H84.4c1.911 6.184 8.7 6.973 8.7 6.973-4.939 4.542-14.1 4.147-14.1 4.147 2.439 2.434 22.013 10.592 34.14-1.645 8.107-7.96 8.634-16.775 8.832-21.709 0-.461.066-.987.066-1.645l5.734-5.329c-.066-.197-.066-.131-.066-.131z" transform="translate(-79)"/></svg>