<svg xmlns="http://www.w3.org/2000/svg" width="57" height="40" viewBox="0 0 57 40"><defs><style>.icoyoutube{fill:#cd201f;fill-rule:evenodd}</style></defs><path id="icon_youtube" class="icoyoutube" d="M210.613 11.392l13.509 9 1.895-.982-15.4-8.021m33.825-2.77s-.562-3.919-2.271-5.644a8.163 8.163 0 0 0-5.712-2.41c-7.978-.575-19.945-.575-19.945-.575h-.025s-11.967 0-19.946.576a8.164 8.164 0 0 0-5.712 2.41c-1.709 1.727-2.265 5.648-2.265 5.648a85.756 85.756 0 0 0-.566 9.208v4.317a85.756 85.756 0 0 0 .571 9.209s.556 3.921 2.265 5.648c2.169 2.266 5.018 2.195 6.286 2.432 4.561.437 19.384.572 19.384.572s11.98-.018 19.958-.594A8.162 8.162 0 0 0 242.171 37c1.709-1.727 2.267-5.648 2.267-5.648a86.052 86.052 0 0 0 .569-9.209v-4.311a86.053 86.053 0 0 0-.569-9.209zm-33.827 18.76V11.392l15.4 8.021z" transform="translate(-188)"/></svg>