<svg xmlns="http://www.w3.org/2000/svg" width="9.469" height="15" viewBox="0 0 9.469 15"><defs><style>.cls-1{fill:#fff;fill-rule:evenodd}</style></defs><path id="icon_pin" class="cls-1" d="M777.731 1291.42a4.732 4.732 0 0 0-4.757-4.7 4.68 4.68 0 0 0-4.713 4.7c0 1.81.723 2.69 2.323 4.93a14.148 14.148 0 0 1 2.3 5.21c.044.2.219.2.263 0a12.753 12.753 0 0 1 2.258-5.21c.923-1.34 2.326-3.12 2.326-4.93zm-4.714 1.95a1.85 1.85 0 0 1-1.775-1.87 1.8 1.8 0 0 1 3.6 0 1.843 1.843 0 0 1-1.825 1.87z" transform="translate(-768.25 -1286.72)"/></svg>