<?xml version="1.0" standalone="no"?>
<!DOCTYPE svg PUBLIC "-//W3C//DTD SVG 20010904//EN"
 "http://www.w3.org/TR/2001/REC-SVG-20010904/DTD/svg10.dtd">
<svg version="1.0" xmlns="http://www.w3.org/2000/svg"
 width="16.000000pt" height="16.000000pt" viewBox="0 0 16.000000 16.000000"
 preserveAspectRatio="xMidYMid meet">
<metadata>
Created by potrace 1.11, written by Peter Selinger 2001-2013
</metadata>
<g transform="translate(0.000000,16.000000) scale(0.006154,-0.006154)"
fill="#000000" stroke="none">
<path d="M0 1300 l0 -1300 1300 0 1300 0 0 1300 0 1300 -1300 0 -1300 0 0
-1300z m919 525 c154 -37 282 -135 353 -271 47 -88 68 -176 68 -279 0 -327
-234 -565 -557 -565 -107 0 -171 14 -263 58 -139 65 -244 198 -285 357 -19 76
-19 224 0 300 55 209 216 364 420 405 67 13 196 11 264 -5z m753 -372 l3 -387
239 387 238 387 114 0 114 0 0 -570 0 -570 -110 0 -110 0 -2 385 -3 385 -240
-383 -240 -382 -113 -3 -112 -3 0 571 0 570 110 0 110 0 2 -387z"/>
<path d="M718 1630 c-137 -23 -243 -139 -267 -292 -37 -231 112 -421 329 -422
129 0 228 60 291 176 30 57 34 72 37 163 4 113 -13 178 -69 254 -66 91 -198
141 -321 121z"/>
</g>
</svg>
