<svg viewBox="0 0 100 100" xmlns="http://www.w3.org/2000/svg"><symbol viewBox="0 0 40 40" id="icon-btn_play"><title>btn_play</title><circle cx="20" cy="20" r="20"/><path d="M28.716 20l-12.99 7.5v-15z"/></symbol><symbol viewBox="0 0 15 15" id="icon-clock"><title>clock</title><path d="M7.5 15A7.5 7.5 0 1 1 15 7.5 7.5 7.5 0 0 1 7.5 15zm0-13.549A6.048 6.048 0 1 0 13.549 7.5 6.055 6.055 0 0 0 7.5 1.452zm3.387 6.774H6.774v-4.6a.726.726 0 1 1 1.451 0v3.149h2.661a.726.726 0 1 1 .001 1.452z"/></symbol><symbol viewBox="0 0 20.844 20" id="icon-hashtag"><title>hashtag</title><path data-name="hashtag copie" class="cls-1" d="M20.167 6.275l-4.969.023L16.632.824a.667.667 0 0 0-1.291-.338l-1.525 5.818-4.854.022 1.442-5.5A.667.667 0 0 0 9.113.488L7.581 6.335l-5.837.027a.667.667 0 0 0 0 1.334l5.481-.025-1.226 4.681-5.326.024a.667.667 0 0 0 0 1.334l4.97-.023-1.424 5.468a.667.667 0 0 0 1.291.338l1.525-5.818 4.854-.022-1.442 5.5a.667.667 0 0 0 .476.814.68.68 0 0 0 .17.022.668.668 0 0 0 .645-.5l1.532-5.847 5.838-.027a.667.667 0 0 0 0-1.334l-5.481.025 1.227-4.681 5.325-.024a.667.667 0 0 0-.012-1.326zm-7.93 6.046l-4.854.022 1.226-4.681 4.854-.022z"/></symbol><symbol viewBox="0 0 20 20" id="icon-loupe"><title>loupe</title><path class="cls-1" d="M19.8 18.87l-4.67-4.669a.66.66 0 1 0-.93.935l4.67 4.669a.66.66 0 1 0 .93-.935zM7.33 1.33a6 6 0 1 0 6 6 6.019 6.019 0 0 0-6-6zm0 13.339a7.336 7.336 0 1 1 7.34-7.336 7.365 7.365 0 0 1-7.34 7.336z"/></symbol><symbol viewBox="0 0 20 20" id="icon-play"><title>play</title><path data-name="Forme 2" class="cls-1" d="M1.05 1.475A1.472 1.472 0 0 1 3.27.216l7.473 4.258 7.47 4.227a1.473 1.473 0 0 1 0 2.549l-7.47 4.258L3.27 19.8a1.471 1.471 0 0 1-2.22-1.259V1.475z"/></symbol></svg>