<svg viewBox="0 0 100 100" xmlns="http://www.w3.org/2000/svg"><defs><style>.icofacebook{fill:#3b5999;fill-rule:evenodd}</style><style>.icotwitter{fill:#55acee;fill-rule:evenodd}</style><style>.icoyoutube{fill:#cd201f;fill-rule:evenodd}</style></defs><symbol viewBox="0 0 11.4 20" id="icon-arrow"><title>arrow</title><path class="cls-1" d="M1.1 0a1.223 1.223 0 0 0-.7 2.08l8.2 7.91-8.2 7.89a1.291 1.291 0 0 0-.1 1.74 1.159 1.159 0 0 0 1.7.02l9-8.78a1.22 1.22 0 0 0 0-1.76L2 .32A1.118 1.118 0 0 0 1.1 0z"/></symbol><symbol viewBox="0 0 40 40" id="icon-btn_play"><title>btn_play</title><style>.st0{fill:#f83938}.st1{fill:#fff}</style><circle class="st0" cx="20" cy="20" r="20"/><path id="btn_play-Polygone_715" class="st1" d="M28.7 20l-13 7.5v-15l13 7.5z"/></symbol><symbol viewBox="0 0 15 15" id="icon-clock"><title>clock</title><path d="M7.5 15A7.5 7.5 0 1 1 15 7.5 7.5 7.5 0 0 1 7.5 15zm0-13.549A6.048 6.048 0 1 0 13.549 7.5 6.055 6.055 0 0 0 7.5 1.452zm3.387 6.774H6.774v-4.6a.726.726 0 1 1 1.451 0v3.149h2.661a.726.726 0 1 1 .001 1.452z"/></symbol><symbol viewBox="0 0 20.844 20" id="icon-hashtag"><title>hashtag</title><path data-name="hashtag copie" class="cls-1" d="M20.167 6.275l-4.969.023L16.632.824a.667.667 0 0 0-1.291-.338l-1.525 5.818-4.854.022 1.442-5.5A.667.667 0 0 0 9.113.488L7.581 6.335l-5.837.027a.667.667 0 0 0 0 1.334l5.481-.025-1.226 4.681-5.326.024a.667.667 0 0 0 0 1.334l4.97-.023-1.424 5.468a.667.667 0 0 0 1.291.338l1.525-5.818 4.854-.022-1.442 5.5a.667.667 0 0 0 .476.814.68.68 0 0 0 .17.022.668.668 0 0 0 .645-.5l1.532-5.847 5.838-.027a.667.667 0 0 0 0-1.334l-5.481.025 1.227-4.681 5.325-.024a.667.667 0 0 0-.012-1.326zm-7.93 6.046l-4.854.022 1.226-4.681 4.854-.022z"/></symbol><symbol viewBox="0 0 20 40" id="icon-icon_facebook"><title>icon_facebook</title><path id="icon_facebook-icon_facebook" class="icofacebook" d="M20.014 7.6V0h-6.849C7.633.008 4.8 2.735 4.8 7.67v6.039H-.007v8.246H4.8v18.051h8.364V21.955h6.191l.659-8.246h-6.849v-2.663c0-1.753.329-3.441 3.161-3.441h3.688z"/></symbol><symbol viewBox="0 0 48.781 40" id="icon-icon_twitter"><title>icon_twitter</title><path id="icon_twitter-icon_twitter" class="icotwitter" d="M127.706 4.614c-2.175.329-5.668.921-5.668.921L126.453.8l-.065-.132c-2.505 1.447-6.2 1.71-7.909 1.974a8.669 8.669 0 0 0-6.393-2.633c-7.316 0-11.6 6.447-9.557 12.368-12.852-.461-20.365-10.2-20.365-10.2-3.954 7.5 3.691 13.026 3.691 13.026a22.031 22.031 0 0 1-5.207-1.184c0 7.829 8.634 9.934 8.634 9.934H84.4c1.911 6.184 8.7 6.973 8.7 6.973-4.939 4.542-14.1 4.147-14.1 4.147 2.439 2.434 22.013 10.592 34.14-1.645 8.107-7.96 8.634-16.775 8.832-21.709 0-.461.066-.987.066-1.645l5.734-5.329c-.066-.197-.066-.131-.066-.131z" transform="translate(-79)"/></symbol><symbol viewBox="0 0 57 40" id="icon-icon_youtube"><title>icon_youtube</title><path id="icon_youtube-icon_youtube" class="icoyoutube" d="M210.613 11.392l13.509 9 1.895-.982-15.4-8.021m33.825-2.77s-.562-3.919-2.271-5.644a8.163 8.163 0 0 0-5.712-2.41c-7.978-.575-19.945-.575-19.945-.575h-.025s-11.967 0-19.946.576a8.164 8.164 0 0 0-5.712 2.41c-1.709 1.727-2.265 5.648-2.265 5.648a85.756 85.756 0 0 0-.566 9.208v4.317a85.756 85.756 0 0 0 .571 9.209s.556 3.921 2.265 5.648c2.169 2.266 5.018 2.195 6.286 2.432 4.561.437 19.384.572 19.384.572s11.98-.018 19.958-.594A8.162 8.162 0 0 0 242.171 37c1.709-1.727 2.267-5.648 2.267-5.648a86.052 86.052 0 0 0 .569-9.209v-4.311a86.053 86.053 0 0 0-.569-9.209zm-33.827 18.76V11.392l15.4 8.021z" transform="translate(-188)"/></symbol><symbol viewBox="0 0 20 20" id="icon-loupe"><title>loupe</title><path class="cls-1" d="M19.8 18.87l-4.67-4.669a.66.66 0 1 0-.93.935l4.67 4.669a.66.66 0 1 0 .93-.935zM7.33 1.33a6 6 0 1 0 6 6 6.019 6.019 0 0 0-6-6zm0 13.339a7.336 7.336 0 1 1 7.34-7.336 7.365 7.365 0 0 1-7.34 7.336z"/></symbol><symbol viewBox="0 0 20 20" id="icon-play"><title>play</title><path d="M1.05 1.475A1.472 1.472 0 0 1 3.27.216l7.473 4.258 7.47 4.227a1.473 1.473 0 0 1 0 2.549l-7.47 4.258L3.27 19.8a1.471 1.471 0 0 1-2.22-1.259V1.475z"/></symbol></svg>