<svg id="Calque_1" data-name="Calque 1" xmlns="http://www.w3.org/2000/svg" viewBox="0 0 1536.49 479.76"><defs><style>.cls-1{fill:#fff;}</style></defs><title>logo-ornorme</title><path class="cls-1" d="M1534.35,336H7.43V0H1534.35ZM1529.62,4.73H585.78v326.5h943.84V4.73ZM196.09,273.13c62.12,0,105.47-45.29,105.47-105.47,0-58.88-43.35-104.83-105.47-104.83s-105.47,46-105.47,105.48S134,273.14,196.09,273.14ZM363,66.73H322.9V269.25h41.41L451,130.13V269.25h40.12V66.72H451L363,204.54V66.72ZM196.09,101c36.24,0,62.76,28.47,62.76,66.65,0,38.82-26.53,66.65-62.76,66.65s-62.76-27.82-62.76-66.65C133.33,129.49,159.86,101,196.09,101Z" transform="translate(-2)"/><path class="cls-1" d="M743.79,229c36,0,61-26.3,61-60.82,0-34.16-25-60.82-61-60.82s-61,26.63-61,60.82C682.82,202.66,707.78,229,743.79,229Zm0-99.48c21.1,0,36.34,16.58,36.34,38.68,0,22.41-15.2,38.69-36.34,38.69s-36.34-16.25-36.34-38.69C707.45,146.08,722.65,129.51,743.79,129.51Z" transform="translate(-2)"/><path class="cls-1" d="M864.56,137C853,137,844.3,143.24,840.44,152V139.22H817.83v87.59h23.11V188.66c0-17.41,6.4-28.14,23.62-28.14Z" transform="translate(-2)"/><polygon class="cls-1" points="1001.02 109.58 1024.47 109.58 1024.47 226.81 1001.19 226.81 1001.19 146.42 951.12 226.81 927.17 226.81 927.17 109.58 950.45 109.58 950.45 189.29 1001.02 109.58 1001.02 109.58"/><path class="cls-1" d="M1039.13,183.27c0,26.46,19.76,45.72,47.06,45.72,27.46,0,47.21-19.26,47.21-45.72S1113,137,1086.19,137C1059.57,137,1039.13,156.63,1039.13,183.27Zm23.11,0c0-15.08,10.05-25.79,24-25.79s24.12,10.88,24.12,25.79-10.22,25.29-24.12,25.29C1072.46,208.55,1062.24,198.15,1062.24,183.27Z" transform="translate(-2)"/><path class="cls-1" d="M1192.87,137c-11.56,0-20.26,6.19-24.12,14.91V139.22h-22.61v87.59h23.11V188.66c0-17.41,6.4-28.14,23.62-28.14Z" transform="translate(-2)"/><path class="cls-1" d="M1330.66,168.19c0-18.76-9.88-32-29.81-32-11.72,0-20.81,5-26,13.07-4.52-8-12.72-13.07-24-13.07-11.89,0-19.59,6.4-22.78,12.4v-10.2h-22.58v88.43h23.11V173.55c0-10.4,6-16.58,14.24-16.58,8.54,0,13.6,5.87,13.6,15.74v54.1h23.11V173.72c0-10.56,5.86-16.75,14.24-16.75,8.54,0,13.73,6.19,13.73,16.58v53.26h23.11V168.19Z" transform="translate(-2)"/><path class="cls-1" d="M1341.88,183.27c0,26.3,17.92,45.72,46.05,45.72,21.77,0,33.5-13.07,36.81-19.26l-15.2-11.56a25.61,25.61,0,0,1-21.27,10.72c-12.89,0-22.27-8.37-22.78-20.09h61.62a50.22,50.22,0,0,0,.17-5c0-28.64-15.4-46.73-42.54-46.73-25,0-42.87,19.76-42.87,46.22Zm24.28-9.55c1-10.05,8-17.75,18.93-17.75,10.56,0,18.25,7,18.76,17.75Z" transform="translate(-2)"/><g id="baseline"><path class="cls-1" d="M16.16,479.7c9,0,14.16-5.72,14.16-13.68V445.18H22V466c0,3.74-2.09,6-5.82,6s-5.91-2.28-5.91-6V445.18H2v20.89c0,8.1,5,13.6,14.16,13.6Z" transform="translate(-2)"/><polygon class="cls-1" points="80.1 479.12 88.34 479.12 88.34 445.18 80.19 445.18 80.19 466.23 67.78 445.18 59.35 445.18 59.35 479.12 67.49 479.12 67.49 458.32 80.1 479.12 80.1 479.12"/><path class="cls-1" d="M174.89,471.51l2.4,7.61h8.36l-11.73-33.94H165.2l-11.74,34h8.34l2.4-7.61Zm-2.13-6.76h-6.4l3.2-10.76Z" transform="translate(-2)"/><path class="cls-1" d="M227.26,479.7c9,0,14.16-5.72,14.16-13.68V445.18h-8.29V466c0,3.74-2.09,6-5.82,6s-5.91-2.28-5.91-6V445.18h-8.29v20.89c0,8.1,5,13.6,14.16,13.6Z" transform="translate(-2)"/><polygon class="cls-1" points="291.4 452.6 291.4 445.18 268.46 445.18 268.46 452.6 275.78 452.6 275.78 479.12 284.07 479.12 284.07 452.6 291.4 452.6 291.4 452.6"/><path class="cls-1" d="M345.47,455.61c0-6.74-3.88-10.4-11.88-10.4H322.53v33.95h8.29V466.56h2.52l6.06,12.59h9.16l-7.8-14.55c3.1-1.7,4.71-5.23,4.71-9Zm-12.56-3.3c3,0,4.07,1.36,4.07,3.59a3.43,3.43,0,0,1-3.68,3.74h-2.48v-7.32Z" transform="translate(-2)"/><polygon class="cls-1" points="393.55 479.12 393.55 471.7 383.37 471.7 383.37 465.64 391.71 465.64 391.71 458.27 383.37 458.27 383.37 452.6 393.17 452.6 393.17 445.18 375.08 445.18 375.08 479.12 393.55 479.12 393.55 479.12"/><path class="cls-1" d="M483.46,455.61c0-6.74-3.88-10.4-11.88-10.4h-11v33.95h8.29V466.56h2.52l6,12.59h9.16l-7.8-14.55c3.1-1.7,4.71-5.23,4.71-9Zm-12.56-3.3c3,0,4.07,1.36,4.07,3.59a3.43,3.43,0,0,1-3.68,3.74h-2.47v-7.32Z" transform="translate(-2)"/><polygon class="cls-1" points="531.54 479.12 531.54 471.7 521.36 471.7 521.36 465.64 529.7 465.64 529.7 458.27 521.36 458.27 521.36 452.6 531.15 452.6 531.15 445.18 513.07 445.18 513.07 479.12 531.54 479.12 531.54 479.12"/><path class="cls-1" d="M595.21,460.07h-13.6V467h5.87v3c-.54.54-3,2.09-7.2,2.09-5.39,0-9.56-3.88-9.56-10.18,0-5.48,3.49-9.7,9.56-9.7a10.75,10.75,0,0,1,8.19,3.68l5.23-5.43c-1.74-2.18-5.82-5.91-13.82-5.91-10.57,0-17.74,7.8-17.74,17.5,0,10.91,8,17.69,17.55,17.69a22.88,22.88,0,0,0,15.52-5.33V460.07Z" transform="translate(-2)"/><path class="cls-1" d="M644.23,471.51l2.4,7.61H655l-11.73-33.94h-8.74l-11.73,34h8.34l2.4-7.61Zm-2.13-6.76h-6.4L638.9,454Z" transform="translate(-2)"/><path class="cls-1" d="M706.44,455.61c0-6.74-3.88-10.4-11.88-10.4H683.5v33.95h8.31V466.56h2.52l6.06,12.56h9.16l-7.8-14.55c3.1-1.7,4.71-5.23,4.71-9Zm-12.56-3.3c3,0,4.07,1.36,4.07,3.59a3.43,3.43,0,0,1-3.68,3.74h-2.46v-7.32Z" transform="translate(-2)"/><path class="cls-1" d="M738,445.18v34h10c10.91,0,17.89-6.35,17.89-17s-7-17-17.89-17Zm10,7.2c5.6,0,9.26,3.3,9.26,9.8S753.61,472,748,472h-1.7V452.36Z" transform="translate(-2)"/><path class="cls-1" d="M828.81,472.29c1.06,3.25,4,7.47,10.62,7.47,6.35,0,10.28-4.17,10.28-9.51,0-10.86-15.95-9.26-15.95-17,0-2.81,2-5.09,5.72-5.09a6.84,6.84,0,0,1,6.35,4.27l3.3-1.36a9.9,9.9,0,0,0-9.6-6.5c-6,0-9.7,3.83-9.7,8.68,0,11,15.9,8.8,15.9,17.26,0,3.54-2.57,5.6-6.15,5.6a7.33,7.33,0,0,1-7.42-5.28l-3.35,1.46Z" transform="translate(-2)"/><path class="cls-1" d="M893.2,479.75c8.05,0,12.65-5.19,12.65-12.85V445.18H902v21.67c0,5.67-3.06,9.26-8.8,9.26s-8.73-3.59-8.73-9.21V445.18h-3.93v21.77c0,7.71,4.51,12.8,12.65,12.8Z" transform="translate(-2)"/><path class="cls-1" d="M938.54,479.15h3.93V464.38h5.77l7.67,14.77h4.36l-8.43-15.56c3.93-1.26,5.91-4.95,5.91-9,0-5.91-3.63-9.4-10.57-9.4h-8.63ZM942.47,461v-12.3h4.46c4.8,0,6.69,2.4,6.69,6,0,4.46-2.47,6.31-6.45,6.31Z" transform="translate(-2)"/><path class="cls-1" d="M1025.61,472.29c1.06,3.25,4,7.47,10.62,7.47,6.35,0,10.28-4.17,10.28-9.51,0-10.86-15.95-9.26-15.95-17,0-2.81,2-5.09,5.72-5.09a6.84,6.84,0,0,1,6.35,4.27l3.3-1.36a9.9,9.9,0,0,0-9.6-6.5c-6,0-9.7,3.83-9.7,8.68,0,11,15.9,8.8,15.9,17.26,0,3.54-2.57,5.6-6.15,5.6a7.33,7.33,0,0,1-7.42-5.28l-3.35,1.46Z" transform="translate(-2)"/><polygon class="cls-1" points="1081.89 479.12 1085.82 479.12 1085.82 448.77 1094.93 448.77 1094.93 445.18 1072.73 445.18 1072.73 448.77 1081.89 448.77 1081.89 479.12 1081.89 479.12"/><path class="cls-1" d="M1127.53,479.15h3.93V464.38h5.77l7.66,14.74h4.36l-8.43-15.56c3.93-1.26,5.91-4.95,5.91-9,0-5.91-3.63-9.4-10.57-9.4h-8.63v34Zm3.93-18.18v-12.3h4.46c4.8,0,6.69,2.4,6.69,6,0,4.46-2.47,6.31-6.45,6.31Z" transform="translate(-2)"/><path class="cls-1" d="M1197.35,468.12l4.07,11h4l-12.7-33.94h-4L1176,479.15h4l4.07-11Zm-1.16-3.39h-10.91l5.43-15.2,5.48,15.2Z" transform="translate(-2)"/><path class="cls-1" d="M1232.89,472.29c1.06,3.25,4,7.47,10.62,7.47,6.35,0,10.28-4.17,10.28-9.51,0-10.86-15.95-9.26-15.95-17,0-2.81,2-5.09,5.72-5.09a6.84,6.84,0,0,1,6.35,4.27l3.3-1.36a9.9,9.9,0,0,0-9.6-6.5c-6,0-9.7,3.83-9.7,8.68,0,11,15.9,8.8,15.9,17.26,0,3.54-2.57,5.6-6.15,5.6a7.33,7.33,0,0,1-7.42-5.28l-3.35,1.46Z" transform="translate(-2)"/><path class="cls-1" d="M1284.81,479.15h10.4c5.82,0,10.23-3.54,10.23-9.65a8.23,8.23,0,0,0-5.53-8.15,8.21,8.21,0,0,0,4.36-7.47c0-5.39-3.63-8.68-10.08-8.68h-9.38Zm3.93-19.25V448.7h5.87c3.63,0,5.6,2.14,5.6,5.48a5.39,5.39,0,0,1-5.6,5.72Zm0,15.81V463.15h5.72c3.93,0,6.88,1.74,6.88,6.21s-2.81,6.31-6.83,6.31Z" transform="translate(-2)"/><path class="cls-1" d="M1334.42,462.15c0,10.08,7.42,17.61,17.26,17.61s17.36-7.61,17.36-17.61-7.42-17.61-17.31-17.61-17.31,7.61-17.31,17.61Zm4.07,0c0-8,5.72-13.92,13.24-13.92s13.24,6,13.24,13.92-5.72,13.92-13.24,13.92S1338.5,470.2,1338.5,462.15Z" transform="translate(-2)"/><path class="cls-1" d="M1412.42,479.75c8.05,0,12.65-5.19,12.65-12.85V445.18h-3.88v21.67c0,5.67-3.06,9.26-8.8,9.26s-8.73-3.59-8.73-9.21V445.18h-3.93v21.77c0,7.71,4.51,12.8,12.65,12.8Z" transform="translate(-2)"/><path class="cls-1" d="M1457.76,479.15h3.91V464.38h5.77l7.66,14.74h4.36L1471,463.55c3.93-1.26,5.91-4.95,5.91-9,0-5.91-3.63-9.4-10.57-9.4h-8.63v34Zm3.93-18.18v-12.3h4.46c4.8,0,6.69,2.4,6.69,6,0,4.46-2.47,6.31-6.45,6.31Z" transform="translate(-2)"/><path class="cls-1" d="M1524.71,444.55c-9.94,0-17.17,7.71-17.17,17.65,0,10.33,7.42,17.55,17.07,17.55,5.77,0,10.18-1.74,13.87-5.48V462h-11.35v3.44h7.56v7.13c-1.06,1.06-4.27,3.54-9.94,3.54-7.56,0-13.09-5.72-13.09-13.92,0-8,5.33-14,13.14-14a13.51,13.51,0,0,1,9.89,3.88l2.52-2.62a17.09,17.09,0,0,0-12.51-4.95Z" transform="translate(-2)"/></g></svg>