<svg id="Calque_1" data-name="Calque 1" xmlns="http://www.w3.org/2000/svg" viewBox="0 0 1540.15 503"><title>logo-ornorme</title><g id="baseline"><path d="M.3,449.5v-50H20.13v50c0,8.82,5.34,14.27,14.15,14.27s13.92-5.45,13.92-14.38V399.5H68v49.88c0,19-12.41,32.71-33.87,32.71C12.36,482.09.3,468.87.3,449.5Z"/><path d="M115.71,444.39c0-5.68-3.36-8.7-8-8.7-5.34,0-8.35,3.83-8.35,8.7V480.7H80V419.8H98.89v6.26a18.25,18.25,0,0,1,15.31-7.77c19,0,20.88,16.24,20.88,28.65V480.7H115.71Z"/><path d="M187.75,441.61a31,31,0,0,1,11.72,2.2v-2.2c0-3.71-3-6.61-9.28-6.61a35.17,35.17,0,0,0-15.31,3.83l-7.19-13a44.35,44.35,0,0,1,24.82-7.54c21,0,26.33,10.79,26.33,24.71v37.7H201.55l-1-3.36c-3.13,3.13-7.54,4.87-13.8,4.87-11.95,0-22.62-7.19-22.62-20.42C164.08,449.62,173.36,441.61,187.75,441.61Zm3.94,25.75c4.64,0,8.12-2.2,8.12-6.26s-3.6-6.5-8.24-6.5-8.12,2.55-8.12,6.5S187.17,467.36,191.69,467.36Z"/><path d="M247.6,456.11c0,5.68,3.36,8.7,8,8.7,5.34,0,8.35-3.83,8.35-8.7V419.8h19.37v60.9h-18.9v-6.26a18.25,18.25,0,0,1-15.31,7.77c-19,0-20.88-16.24-20.88-28.65V419.8H247.6Z"/><path d="M314.42,419.8h10.32v15.66H314.42v22.39c0,5.34,3.6,6.61,7.54,6.61a31.76,31.76,0,0,0,3.25-.12v16.59a31.22,31.22,0,0,1-7.42.7C303.4,481.63,295,475,295,456.92V435.46h-5.92V419.8H295V406.93h19.37Z"/><path d="M368.7,438a20.35,20.35,0,0,0-3.13-.23c-9.4,0-12.53,6.84-12.53,16V480.7H333.67V419.8h18.91v8.12c2.9-5.92,8.58-9.63,16.12-9.63Z"/><path d="M390.39,455.3c.46,5.45,5.68,10.09,12.88,10.09a15.71,15.71,0,0,0,12.76-6.5l12.76,9.86c-1.74,3.6-10.09,13.46-25.87,13.46-20.07,0-32.36-13.8-32.36-31.78s12.06-32.13,29.93-32.13c19.37,0,29.93,12.41,29.93,33.17,0,1.16,0,2.44-.12,3.83ZM391,443h19.72c-.23-4.87-3.83-9-9.86-9C394.45,434,391.44,438.71,391,443Z"/><path d="M494.79,438a20.35,20.35,0,0,0-3.13-.23c-9.4,0-12.53,6.84-12.53,16V480.7H459.76V419.8h18.91v8.12c2.9-5.92,8.58-9.63,16.12-9.63Z"/><path d="M516.48,455.3c.46,5.45,5.68,10.09,12.88,10.09a15.71,15.71,0,0,0,12.76-6.5l12.76,9.86c-1.74,3.6-10.09,13.46-25.87,13.46-20.07,0-32.36-13.8-32.36-31.78s12.06-32.13,29.93-32.13c19.37,0,29.93,12.41,29.93,33.17,0,1.16,0,2.44-.12,3.83Zm.58-12.3h19.72c-.23-4.87-3.83-9-9.86-9C520.54,434,517.53,438.71,517.06,443Z"/><path d="M605.57,476.06c-1.28,1.51-7,6.15-16.24,6.15-17.63,0-28.77-13.11-28.77-32,0-18.68,12.3-31.9,29.81-31.9,8.93,0,14.73,4.29,16.47,6.26V419.8h18.1v53.59c0,22.5-15.66,29.58-33.76,29.58a52.34,52.34,0,0,1-22.5-5.22l5.68-14.85a42.33,42.33,0,0,0,16.82,3.71c7.19,0,14.38-1.62,14.38-9Zm-12.64-40.71c-7.77,0-13,5.68-13,14.73s5.22,15.08,13.11,15.08c7.66,0,13.11-5.45,13.11-15.08,0-8.08-4.88-14.73-13.23-14.73Z"/><path d="M655.45,441.61a31,31,0,0,1,11.72,2.2v-2.2c0-3.71-3-6.61-9.28-6.61a35.17,35.17,0,0,0-15.31,3.83l-7.19-13a44.35,44.35,0,0,1,24.82-7.54c21,0,26.33,10.79,26.33,24.71v37.7H669.25l-1-3.36c-3.13,3.13-7.54,4.87-13.8,4.87-12,0-22.62-7.19-22.62-20.42C631.78,449.62,641.06,441.61,655.45,441.61Zm3.94,25.75c4.64,0,8.12-2.2,8.12-6.26s-3.6-6.5-8.24-6.5-8.12,2.55-8.12,6.5S654.87,467.36,659.39,467.36Z"/><path d="M731.42,438a20.35,20.35,0,0,0-3.13-.23c-9.4,0-12.53,6.84-12.53,16V480.7H696.39V419.8H715.3v8.12c2.9-5.92,8.58-9.63,16.12-9.63Z"/><path d="M781.88,476c-1.74,2-7.54,6.26-16.47,6.26-17.52,0-29.81-13.22-29.81-31.9,0-18.91,11.14-32,28.77-32,9.28,0,15,4.64,16.24,6.15V396.84H800V480.7H781.9Zm-13.8-40.6c-7.89,0-13.11,6.15-13.11,15.08s5.34,14.85,13.11,14.85c8.35,0,13.11-6.73,13.11-14.85C781.19,440.8,775.73,435.35,768.08,435.35Z"/><path d="M836.87,465.16c2.55,4.76,6.84,9.28,15.08,9.28,6,0,11.14-3.48,11.14-9.63,0-13.92-30.28-9.16-30.28-29.58,0-10.21,8.47-16.36,19.37-16.36,11.25,0,17,7.08,18.68,11.6l-6.73,3.83c-1.62-3.25-4.76-7.77-12.53-7.77-5.57,0-10,3.13-10,8.35,0,13.57,30.39,8.47,30.39,29.46,0,10.67-8.82,17.86-20.53,17.86-12.64,0-18.33-7.19-21-12.88Z"/><path d="M882.22,458.08v-37.7h9.16v38c0,9.63,6.15,15.43,14.27,15.43,9.28,0,15.66-6.84,15.66-16.82V420.38h9.28V480.7h-9.16V472c-2.78,5.45-9.63,10.21-17.86,10.21C889.53,482.21,882.22,471.77,882.22,458.08Z"/><path d="M972.23,428c-13.8,0-17.86,10.9-17.86,23.78V480.7h-9.16V420.38h9v10.09c2.09-6,8.82-11.6,18-11.6Z"/><path d="M1014.8,460.87c2.2,6.26,7.08,12.64,17.75,12.64,8.58,0,14.73-5,14.73-13.46,0-20.3-38-15.08-38-41.29,0-11.6,8.82-20.76,23.2-20.76a23.89,23.89,0,0,1,23,15.54l-7.89,3.25c-1.86-4.06-6.26-10.21-15.2-10.21s-13.69,5.45-13.69,12.18c0,18.56,38.16,14.73,38.16,40.71,0,12.76-9.4,22.74-24.59,22.74-15.78,0-22.85-10.09-25.4-17.86Z"/><path d="M1069.55,407.74h9.16v12.64h13.22v7.77h-13.22v31.09c0,11.25,3.25,13.92,11.14,13.92,1.16,0,2.55-.12,2.55-.12v8.12a43.83,43.83,0,0,1-5.57.35c-12.06,0-17.28-7.89-17.28-21.46v-31.9h-7.08v-7.77h7.08Z"/><path d="M1129.53,428c-13.8,0-17.86,10.9-17.86,23.78V480.7h-9.16V420.38h9v10.09c2.09-6,8.82-11.6,18-11.6Z"/><path d="M1158.41,442.31c7.66,0,13.46,2.9,15.89,5.45v-7.42c0-8.47-5.68-13.34-14.62-13.34a34.58,34.58,0,0,0-17.75,5.22l-3.71-6.73a42.51,42.51,0,0,1,22.27-6.61c16.47,0,23,9.16,23,22V480.7h-7.89l-1-5.1c-3.13,3.6-8.24,6.61-16.36,6.61-13.22,0-23-8.35-23-20.07C1135.21,450.66,1144.84,442.31,1158.41,442.31Zm1.28,32.25c8.82,0,15-5.22,15-12.53,0-7.54-6-12.41-15.08-12.41S1144.49,455,1144.49,462s5.92,12.55,15.19,12.55Z"/><path d="M1199.59,465.16c2.55,4.76,6.84,9.28,15.08,9.28,6,0,11.14-3.48,11.14-9.63,0-13.92-30.28-9.16-30.28-29.58,0-10.21,8.47-16.36,19.37-16.36,11.25,0,17.05,7.08,18.68,11.6l-6.73,3.83c-1.62-3.25-4.76-7.77-12.53-7.77-5.57,0-10,3.13-10,8.35,0,13.57,30.39,8.47,30.39,29.46,0,10.67-8.82,17.86-20.53,17.86-12.64,0-18.33-7.19-21-12.88Z"/><path d="M1245.52,396.84h9.16v33.29A25,25,0,0,1,1276,418.88c17.05,0,28.77,13.22,28.77,31.78s-12.29,31.55-29.46,31.55a25,25,0,0,1-21-11v9.51h-8.82ZM1274.75,474c11.6,0,20.65-9.16,20.65-23.2,0-13.8-8.58-23.55-20.42-23.55-11.37,0-20.65,8.58-20.65,23.55C1254.34,463.42,1262.23,474,1274.75,474Z"/><path d="M1343.42,418.88c18.21,0,31.44,13.57,31.44,31.67s-13.46,31.67-31.55,31.67-31.44-13.34-31.44-31.67S1325.44,418.88,1343.42,418.88Zm-.12,55c13,0,22.27-9.86,22.27-23.32s-9.28-23.32-22.27-23.32-22,10.09-22,23.32c0,13.55,9.13,23.3,22,23.3Z"/><path d="M1385.42,458.08v-37.7h9.16v38c0,9.63,6.15,15.43,14.27,15.43,9.28,0,15.66-6.84,15.66-16.82V420.38h9.28V480.7h-9.16V472c-2.78,5.45-9.63,10.21-17.86,10.21C1392.72,482.21,1385.42,471.77,1385.42,458.08Z"/><path d="M1475.43,428c-13.8,0-17.86,10.9-17.86,23.78V480.7h-9.16V420.38h9v10.09c2.09-6,8.82-11.6,18-11.6Z"/><path d="M1491.55,489.75a37.81,37.81,0,0,0,18.21,5c11.48,0,21.23-4.76,21.23-18.21V471.2a24.29,24.29,0,0,1-20.88,11c-17.28,0-29.12-13.11-29.12-31.55s11.95-31.78,29-31.78a25.05,25.05,0,0,1,21.34,11.25v-9.74h8.82v52c0,22.85-12.88,30.62-30.28,30.62a44.08,44.08,0,0,1-21.58-6Zm19.14-62.52c-11.72,0-20.42,9.63-20.42,23.43,0,14,9,23.2,20.65,23.2,12.41,0,20.42-10.21,20.42-23.2,0-14.66-9.16-23.43-20.65-23.43Z"/></g><g id="logo"><path d="M710.34,170c0-33.72,24.63-60,60.16-60s60.17,26.28,60.17,60c0,34-24.63,60-60.17,60S710.34,204,710.34,170Zm24.3,0c0,22.15,15,38.18,35.87,38.18s35.87-16,35.87-38.18c0-21.82-15-38.18-35.87-38.18S734.64,148.18,734.64,170Z"/><path d="M890.26,163.45c-17,0-23.22,10.54-23.22,27.66V230H843.82V142.17H866v12.68c3.87-8.68,12.62-14.85,24.23-14.85Z"/><path d="M963.45,230h-23V110h24v82.29L1016.08,110h23.51V230h-24V148.4Z"/><path d="M1099.13,139.64c26.23,0,46.23,19.34,46.23,45.25s-19.34,44.75-46.23,44.75c-26.72,0-46.06-18.85-46.06-44.75C1053.07,158.82,1073.07,139.64,1099.13,139.64Zm0,70c13.61,0,23.61-10.16,23.61-24.75s-10-25.25-23.61-25.25-23.44,10.49-23.44,25.25C1075.69,199.47,1085.69,209.64,1099.13,209.64Z"/><path d="M1205,162.85c-17.53,0-24,10.89-24,28.6V230h-23V142h22v12.73c4-8.71,13-14.91,25-14.91Z"/><path d="M1343,230h-23V177.58c0-10.38-5.2-16.58-13.75-16.58-8.38,0-14.25,6.2-14.25,16.75V230l-23-1V175.75c0-9.88-5.06-15.74-13.66-15.74-8.26,0-14.34,6.2-14.34,16.58V230h-23V142h23v10.26c3.17-6.06,10.83-12.45,22.67-12.45,11.17,0,19.33,5,23.83,13.12,5.17-8.08,14.17-13.12,25.83-13.12,19.83,0,29.67,13.29,29.67,32.14Z"/><path d="M1397.95,140.34c26.56,0,41.64,17.7,41.64,45.74,0,1.64,0,3.28-.16,4.92H1379.1c.49,11.48,9.67,19.67,22.3,19.67a25,25,0,0,0,20.82-10.49l14.92,11.31c-3.28,6.07-14.75,18.85-36.07,18.85-27.54,0-45.08-19-45.08-44.75S1373.52,140.34,1397.95,140.34ZM1416.64,176c-.49-10.49-8-17.38-18.36-17.38-10.65,0-17.54,7.54-18.52,17.38Z"/><path d="M204.92,98.08c-36.35,0-62.6,28.56-62.6,66.64,0,38.65,26.25,66.63,62.6,66.63s62.6-28,62.6-66.63C267.52,126.63,241.27,98.08,204.92,98.08Z"/><path d="M0,0V340H1540V0ZM204.92,269.42c-62,0-105-45.29-105-104.71,0-58.85,43-104.71,105-104.71s105,45.86,105,104.71C309.92,224.13,266.94,269.42,204.92,269.42Zm299.23.58h-41.7V127.2L371.85,270h-42V60h41.7V204l89.7-144h42.9ZM1530,330H620V10h910Z"/></g></svg>